<mxfile host="65bd71144e">
    <diagram id="qDvAUMvP-dxAE4jUAu1P" name="Page-1">
        <mxGraphModel dx="787" dy="494" grid="1" gridSize="10" guides="1" tooltips="1" connect="1" arrows="1" fold="1" page="1" pageScale="1" pageWidth="850" pageHeight="1100" math="0" shadow="0">
            <root>
                <mxCell id="0"/>
                <mxCell id="1" parent="0"/>
                <mxCell id="2" value="Vairuoja" style="rounded=1;whiteSpace=wrap;html=1;" vertex="1" parent="1">
                    <mxGeometry x="365" y="310" width="120" height="60" as="geometry"/>
                </mxCell>
                <mxCell id="4" style="edgeStyle=none;html=1;" edge="1" parent="1" source="3">
                    <mxGeometry relative="1" as="geometry">
                        <mxPoint x="425" y="310" as="targetPoint"/>
                    </mxGeometry>
                </mxCell>
                <mxCell id="6" value="True" style="edgeLabel;html=1;align=center;verticalAlign=middle;resizable=0;points=[];" vertex="1" connectable="0" parent="4">
                    <mxGeometry x="0.2248" y="-1" relative="1" as="geometry">
                        <mxPoint as="offset"/>
                    </mxGeometry>
                </mxCell>
                <mxCell id="5" style="edgeStyle=none;html=1;" edge="1" parent="1" source="3">
                    <mxGeometry relative="1" as="geometry">
                        <mxPoint x="600" y="160" as="targetPoint"/>
                    </mxGeometry>
                </mxCell>
                <mxCell id="7" value="False" style="edgeLabel;html=1;align=center;verticalAlign=middle;resizable=0;points=[];" vertex="1" connectable="0" parent="5">
                    <mxGeometry x="-0.2863" y="-1" relative="1" as="geometry">
                        <mxPoint as="offset"/>
                    </mxGeometry>
                </mxCell>
                <mxCell id="3" value="hasCar?" style="rhombus;whiteSpace=wrap;html=1;" vertex="1" parent="1">
                    <mxGeometry x="385" y="120" width="80" height="80" as="geometry"/>
                </mxCell>
                <mxCell id="8" value="Nevairuoja" style="rounded=1;whiteSpace=wrap;html=1;" vertex="1" parent="1">
                    <mxGeometry x="600" y="130" width="120" height="60" as="geometry"/>
                </mxCell>
                <mxCell id="9" value="if (hasCar) {&lt;br&gt;&amp;nbsp; Vairuoja&lt;br&gt;}&lt;br&gt;else {&lt;br&gt;&lt;div&gt;&lt;span&gt;&amp;nbsp; Nevairuoja&lt;/span&gt;&lt;/div&gt;}" style="rounded=0;whiteSpace=wrap;html=1;align=left;spacingLeft=18;" vertex="1" parent="1">
                    <mxGeometry x="150" y="30" width="140" height="130" as="geometry"/>
                </mxCell>
                <mxCell id="10" value="IF ELSE" style="text;html=1;strokeColor=none;fillColor=none;align=center;verticalAlign=middle;whiteSpace=wrap;rounded=0;" vertex="1" parent="1">
                    <mxGeometry x="190" width="60" height="30" as="geometry"/>
                </mxCell>
                <mxCell id="11" value="" style="rounded=0;whiteSpace=wrap;html=1;align=left;spacingLeft=18;" vertex="1" parent="1">
                    <mxGeometry x="750" y="30" width="270" height="130" as="geometry"/>
                </mxCell>
                <mxCell id="12" value="Terenary" style="text;html=1;strokeColor=none;fillColor=none;align=center;verticalAlign=middle;whiteSpace=wrap;rounded=0;" vertex="1" parent="1">
                    <mxGeometry x="790" width="60" height="30" as="geometry"/>
                </mxCell>
            </root>
        </mxGraphModel>
    </diagram>
</mxfile>